<svg data-name="Layer 2" viewBox="0 0 32 32" xmlns="http://www.w3.org/2000/svg"><path d="M25.33 5.74h-1.86v-2.8A.93.93 0 0 0 22.32 2L6.46 5.77h-.07l-.17.08-.15.15a1.15 1.15 0 0 0-.22.28 1.11 1.11 0 0 0-.1.35s0 0 0 .08v22.35a.93.93 0 0 0 .93.93h18.65a.93.93 0 0 0 .93-.93V6.67a.93.93 0 0 0-.93-.93Zm-3.73 0h-6.89l6.89-1.62Zm2.79 22.38H7.61V7.61h16.78Z" fill="#ffffff" class="fill-000000"></path><path d="M21.59 17.87h-1.1a2.76 2.76 0 0 0 .17-.93v-1.87a.93.93 0 0 0-.93-.93h-1.88a2.78 2.78 0 0 0-1.87.73 2.78 2.78 0 0 0-1.87-.73h-1.85a.93.93 0 0 0-.93.93v1.87a2.76 2.76 0 0 0 .17.93h-1.1a.93.93 0 0 0 0 1.87v5.59a.93.93 0 0 0 .93.93h9.33a.93.93 0 0 0 .93-.93v-5.6a.93.93 0 1 0 0-1.87ZM17.85 16h.93v.93a.93.93 0 0 1-.91.93h-1v-.93a.93.93 0 0 1 .98-.93Zm-4.67.93V16h.93a.93.93 0 0 1 .93.93v.93h-1a.93.93 0 0 1-.85-.92Zm-.93 2.79h2.8v4.66h-2.8Zm7.47 4.66h-2.8v-4.64h2.8ZM11.34 11.33h9.33a.93.93 0 0 0 0-1.87h-9.33a.93.93 0 1 0 0 1.87Z" fill="#ffffff" class="fill-000000"></path></svg>